<?xml version="1.0" encoding="UTF-8"?>
<svg version="1.1" xmlns="http://www.w3.org/2000/svg" width="474" height="110">
<path d="M0 0 C156.42 0 312.84 0 474 0 C474 36.3 474 72.6 474 110 C317.58 110 161.16 110 0 110 C0 73.7 0 37.4 0 0 Z " fill="#FCFCFC" transform="translate(0,0)"/>
<path d="M0 0 C7.08033241 6.16066482 7.08033241 6.16066482 9 10 C12.36601064 8.87799645 13.06243251 7.99584797 15.25 5.3125 C20.70319628 -1.08011245 26.3553749 -6.97677826 35.0546875 -8.31640625 C44.39201406 -8.83145451 51.91292162 -5.32945752 58.875 0.6875 C63.40310347 5.07389895 66.38107245 9.31168935 69 15 C69.51433594 15.87978516 69.51433594 15.87978516 70.0390625 16.77734375 C78.04623821 30.74405863 80.13091631 51.4451618 76.15234375 66.95703125 C73.28866599 74.67440013 68.44881864 79.77559068 61.125 83.4375 C52.93628431 84.91146882 46.14912926 84.52211833 39 80 C25.56033802 70.09132864 17.12917074 51.20806391 9 37 C6.37591504 39.36570009 4.8292591 41.84348439 3.14453125 44.9375 C2.34039795 46.39651733 2.34039795 46.39651733 1.52001953 47.88500977 C0.95653809 48.91295654 0.39305664 49.94090332 -0.1875 51 C-16.12267762 79.57425935 -16.12267762 79.57425935 -30 84 C-37.3252142 85.0397832 -43.7318806 83.80177163 -49.91015625 79.74609375 C-56.56178318 74.56319123 -59.84156099 67.29731939 -61 59 C-62.40613199 39.16768007 -57.64556286 19.56376968 -45 4 C-31.54922802 -9.92316508 -15.7655554 -11.61905911 0 0 Z " fill="#0865DB" transform="translate(70,17)"/>
<path d="M0 0 C5.94 0 11.88 0 18 0 C19.340625 2.413125 20.68125 4.82625 22.0625 7.3125 C22.52994629 8.15361328 22.99739258 8.99472656 23.47900391 9.86132812 C25.95149982 14.31053062 28.42222783 18.76070442 30.89009094 23.21247864 C32.23719501 25.64227253 33.58498252 28.071687 34.93283081 30.50106812 C35.59958172 31.70322886 36.26602745 32.90555893 36.93215942 34.10806274 C37.87975911 35.81857629 38.82853318 37.52843908 39.77734375 39.23828125 C40.32640381 40.22868408 40.87546387 41.21908691 41.44116211 42.23950195 C42.48849395 44.09418968 43.57635337 45.92651554 44.70141602 47.73510742 C46 50 46 50 46 52 C48.75242783 50.62378609 49.26311262 48.95221929 50.6953125 46.23828125 C51.22672852 45.24006348 51.75814453 44.2418457 52.30566406 43.21337891 C52.86479492 42.15296387 53.42392578 41.09254883 54 40 C55.12111047 37.90946643 56.24352307 35.81963068 57.3671875 33.73046875 C57.93937012 32.66296387 58.51155273 31.59545898 59.10107422 30.49560547 C64.59727751 20.24601084 70.15436975 10.05448404 76 0 C81.61 0 87.22 0 93 0 C93 28.71 93 57.42 93 87 C88.38 87 83.76 87 79 87 C78.67 66.21 78.34 45.42 78 24 C69.91998178 38.29541686 61.87434343 52.59263416 54 67 C49.38 67 44.76 67 40 67 C38.53240234 64.35484375 38.53240234 64.35484375 37.03515625 61.65625 C36.05203428 59.88523596 35.06890866 58.11422395 34.08569336 56.34326172 C33.09783206 54.56364998 32.11043092 52.78378283 31.12304688 51.00390625 C26.11458716 41.98369522 21.05843596 32.99277503 16 24 C15.67 44.79 15.34 65.58 15 87 C10.05 87 5.1 87 0 87 C0 58.29 0 29.58 0 0 Z " fill="#080808" transform="translate(176,12)"/>
<path d="M0 0 C2.5625 1.75 2.5625 1.75 4 3 C4.66 1.02 5.32 -0.96 6 -3 C10.29 -3 14.58 -3 19 -3 C19 18.45 19 39.9 19 62 C14.71 62 10.42 62 6 62 C6 59.36 6 56.72 6 54 C5.34 54 4.68 54 4 54 C3.77054687 54.60457031 3.54109375 55.20914063 3.3046875 55.83203125 C1.63303562 58.60977614 0.03778998 59.31753795 -2.875 60.6875 C-4.17050781 61.31205078 -4.17050781 61.31205078 -5.4921875 61.94921875 C-12.82353583 65.02107654 -20.37177239 64.87609635 -27.80078125 62.1015625 C-35.76861683 58.11056848 -41.19514717 51.1521508 -44.1015625 42.85546875 C-46.67903844 31.79473503 -46.74387276 19.30455894 -40.76171875 9.41796875 C-30.99444532 -3.98766817 -14.94082046 -8.9838123 0 0 Z " fill="#070707" transform="translate(446,37)"/>
<path d="M0 0 C0.80050781 0.12761719 1.60101563 0.25523438 2.42578125 0.38671875 C3.23402344 0.50660156 4.04226562 0.62648438 4.875 0.75 C5.48988281 0.85699219 6.10476562 0.96398438 6.73828125 1.07421875 C6.73828125 1.73421875 6.73828125 2.39421875 6.73828125 3.07421875 C5.74828125 3.40421875 4.75828125 3.73421875 3.73828125 4.07421875 C3.40828125 6.38421875 3.07828125 8.69421875 2.73828125 11.07421875 C0.42828125 10.74421875 -1.88171875 10.41421875 -4.26171875 10.07421875 C-3.93171875 11.06421875 -3.60171875 12.05421875 -3.26171875 13.07421875 C-3.92171875 13.07421875 -4.58171875 13.07421875 -5.26171875 13.07421875 C-5.59171875 14.39421875 -5.92171875 15.71421875 -6.26171875 17.07421875 C-6.92171875 17.07421875 -7.58171875 17.07421875 -8.26171875 17.07421875 C-8.59171875 20.04421875 -8.92171875 23.01421875 -9.26171875 26.07421875 C-10.25171875 25.41421875 -11.24171875 24.75421875 -12.26171875 24.07421875 C-12.25011719 24.97785156 -12.23851562 25.88148437 -12.2265625 26.8125 C-12.21753906 27.99199219 -12.20851563 29.17148437 -12.19921875 30.38671875 C-12.18761719 31.55847656 -12.17601562 32.73023438 -12.1640625 33.9375 C-12.26171875 37.07421875 -12.26171875 37.07421875 -13.26171875 40.07421875 C-13.35618829 42.01904361 -13.39243581 43.9669457 -13.39453125 45.9140625 C-13.39582031 47.05939453 -13.39710937 48.20472656 -13.3984375 49.38476562 C-13.39457031 50.58166016 -13.39070313 51.77855469 -13.38671875 53.01171875 C-13.39058594 54.20474609 -13.39445312 55.39777344 -13.3984375 56.62695312 C-13.39650391 58.34688477 -13.39650391 58.34688477 -13.39453125 60.1015625 C-13.39340332 61.15077881 -13.39227539 62.19999512 -13.39111328 63.28100586 C-13.2782189 65.71803337 -12.96439516 67.74952516 -12.26171875 70.07421875 C-10.61171875 70.07421875 -8.96171875 70.07421875 -7.26171875 70.07421875 C-7.88046875 69.51734375 -8.49921875 68.96046875 -9.13671875 68.38671875 C-14.17700081 62.90170592 -13.74786945 56.49319326 -13.57421875 49.41015625 C-12.85686404 36.01355696 -7.84538246 21.69542254 2.02734375 12.37890625 C6.23634815 9.16930016 9.42917033 8.54330766 14.73828125 9.07421875 C25.74220177 12.55842605 33.90176742 23.61690467 39.73828125 33.07421875 C39.73828125 34.39421875 39.73828125 35.71421875 39.73828125 37.07421875 C40.39828125 37.40421875 41.05828125 37.73421875 41.73828125 38.07421875 C41.42117187 38.51507813 41.1040625 38.9559375 40.77734375 39.41015625 C37.08595783 44.73309396 33.95102058 50.26533219 30.86328125 55.94921875 C24.2367375 68.04554678 16.73842415 81.60930831 2.73828125 86.07421875 C-4.57939689 87.11293223 -11.08655293 85.9163497 -17.20703125 81.75 C-22.46429627 77.55958584 -25.1132226 73.38042101 -25.94921875 66.63671875 C-26.74712416 55.58240417 -26.52825162 44.9414344 -24.26171875 34.07421875 C-23.60171875 34.07421875 -22.94171875 34.07421875 -22.26171875 34.07421875 C-22.2359375 33.44515625 -22.21015625 32.81609375 -22.18359375 32.16796875 C-21.76973343 25.92244021 -20.54630998 21.39108214 -17.26171875 16.07421875 C-16.86597656 15.4090625 -16.47023438 14.74390625 -16.0625 14.05859375 C-12.95488635 9.23542052 -12.95488635 9.23542052 -9.57421875 8.44921875 C-8.81109375 8.32546875 -8.04796875 8.20171875 -7.26171875 8.07421875 C-6.07780652 5.6979653 -6.07780652 5.6979653 -5.26171875 3.07421875 C-3.56150153 0.80550785 -2.88338064 0.09461871 0 0 Z " fill="#0679ED" transform="translate(37.26171875,14.92578125)"/>
<path d="M0 0 C8.23243447 5.35442893 12.43410567 11.71714469 15.234375 21.1875 C15.921875 25.25 15.921875 25.25 15.921875 36.25 C0.081875 36.25 -15.758125 36.25 -32.078125 36.25 C-28.15549361 45.60498371 -28.15549361 45.60498371 -20.890625 51.5625 C-14.21475444 53.19437947 -7.48410612 52.71383889 -1.078125 50.25 C0.93369957 48.93457624 2.93587163 47.6040932 4.921875 46.25 C5.911875 46.25 6.901875 46.25 7.921875 46.25 C9.52734375 48.21875 9.52734375 48.21875 11.109375 50.75 C11.63917969 51.5853125 12.16898437 52.420625 12.71484375 53.28125 C13.11316406 53.9309375 13.51148438 54.580625 13.921875 55.25 C3.4871949 63.82530891 -6.60696888 66.17244351 -20.078125 65.25 C-28.57115966 63.78057019 -35.65778613 58.64387229 -40.953125 51.9375 C-46.70250464 42.90560257 -47.0164072 32.62381672 -46.078125 22.25 C-44.11655473 13.8274384 -39.35999951 6.14157053 -32.078125 1.375 C-22.70502519 -4.20980531 -9.73739033 -5.2713692 0 0 Z " fill="#080808" transform="translate(328.078125,35.75)"/>
<path d="M0 0 C6.8978081 -0.77762346 11.36961766 -0.04572004 16.96484375 4.16796875 C26.97355109 13.17772641 31.22110522 26.22308859 32.17285156 39.39160156 C32.28976705 41.92935539 32.34855435 44.45974829 32.375 47 C32.38885742 47.80099121 32.40271484 48.60198242 32.41699219 49.42724609 C32.37771287 54.34439685 31.70348818 57.73956321 29 62 C26.38650627 64.11904897 24.46060956 64.89764232 21.1875 65.625 C15.37933461 64.48614404 12.05117221 60.96998388 8.72900391 56.15966797 C5.82037939 51.64826682 3.11182438 47.02053653 0.40673828 42.38525391 C-1.80727852 38.63118515 -4.11941459 34.94039546 -6.4375 31.25 C-7.03860596 30.28622437 -7.03860596 30.28622437 -7.65185547 29.30297852 C-8.0335791 28.69252686 -8.41530273 28.0820752 -8.80859375 27.453125 C-9.16937012 26.86982422 -9.53014648 26.28652344 -9.90185547 25.68554688 C-10.98752554 24.0191471 -12.19932909 22.43717895 -13.41015625 20.859375 C-15 18 -15 18 -14.453125 15.41796875 C-8.18933118 4.99515054 -8.18933118 4.99515054 -2.5625 2.4375 C-1.2940625 2.2209375 -1.2940625 2.2209375 0 2 C0 1.34 0 0.68 0 0 Z " fill="#F9FDFC" transform="translate(102,21)"/>
<path d="M0 0 C5.78014139 2.5664282 9.91073468 6.68280397 14.05078125 11.3828125 C14.64246094 12.0428125 15.23414063 12.7028125 15.84375 13.3828125 C17.05078125 15.3828125 17.05078125 15.3828125 16.75146484 17.29101562 C16.05207938 19.37893711 15.22237803 20.99498298 14.046875 22.8515625 C13.63993408 23.49923584 13.23299316 24.14690918 12.8137207 24.81420898 C12.15762817 25.83816772 12.15762817 25.83816772 11.48828125 26.8828125 C11.03864014 27.59187744 10.58899902 28.30094238 10.12573242 29.03149414 C8.77509822 31.15364616 7.41507681 33.26942231 6.05078125 35.3828125 C5.67405273 35.96788574 5.29732422 36.55295898 4.90917969 37.15576172 C-9.41043918 59.29874974 -9.41043918 59.29874974 -15.16796875 61.0625 C-15.92078125 61.12695312 -16.67359375 61.19140625 -17.44921875 61.2578125 C-18.20203125 61.33773437 -18.95484375 61.41765625 -19.73046875 61.5 C-22.33733816 61.36231324 -23.76347766 60.79711556 -25.94921875 59.3828125 C-31.45815319 51.73151467 -31.04603732 42.38570861 -29.63574219 33.38134766 C-27.31314445 21.53372316 -22.85250648 8.93463465 -12.94921875 1.3828125 C-8.66126798 -1.08651323 -4.81783304 -1.52548621 0 0 Z " fill="#FAFDFC" transform="translate(53.94921875,24.6171875)"/>
<path d="M0 0 C2.34502225 1.26540815 3.16110682 1.93857905 4.33984375 4.36328125 C4.66082031 4.98589844 4.98179688 5.60851562 5.3125 6.25 C6.26125 6.394375 7.21 6.53875 8.1875 6.6875 C12.31396762 7.43026417 12.90433809 8.89527734 15.3125 12.25 C24.24387465 26.00239624 27.67634688 39.04669343 27.625 55.375 C27.64111328 56.40753906 27.65722656 57.44007812 27.67382812 58.50390625 C27.67784312 64.80744544 26.92489881 69.50134404 24.3125 75.25 C22.9925 75.25 21.6725 75.25 20.3125 75.25 C20.250625 75.806875 20.18875 76.36375 20.125 76.9375 C18.92465635 80.35386271 17.08900422 81.95636608 14.3125 84.25 C9.54387136 86.10446669 5.40265147 86.45776128 0.3125 86.25 C0.3125 85.59 0.3125 84.93 0.3125 84.25 C-0.780625 84.20875 -1.87375 84.1675 -3 84.125 C-4.216875 83.83625 -5.43375 83.5475 -6.6875 83.25 C-7.73758653 81.27583732 -8.73737876 79.27417134 -9.6875 77.25 C-12.75111777 75.81031273 -12.75111777 75.81031273 -15.6875 75.25 C-15.6875 72.94 -15.6875 70.63 -15.6875 68.25 C-16.3475 68.25 -17.0075 68.25 -17.6875 68.25 C-18.1825 69.24 -18.1825 69.24 -18.6875 70.25 C-18.6875 69.59 -18.6875 68.93 -18.6875 68.25 C-20.0075 67.92 -21.3275 67.59 -22.6875 67.25 C-23.67372152 63.18183621 -24.07447752 59.42935717 -23.6875 55.25 C-21.875 53.3125 -21.875 53.3125 -19.6875 52.25 C-18.6975 52.25 -17.7075 52.25 -16.6875 52.25 C-12.6875 58.875 -12.6875 58.875 -12.6875 62.25 C-12.0275 62.25 -11.3675 62.25 -10.6875 62.25 C-10.6875 63.57 -10.6875 64.89 -10.6875 66.25 C-9.2025 66.745 -9.2025 66.745 -7.6875 67.25 C-7.6875 67.91 -7.6875 68.57 -7.6875 69.25 C-7.0275 69.25 -6.3675 69.25 -5.6875 69.25 C-5.6875 70.24 -5.6875 71.23 -5.6875 72.25 C-1.12629688 73.42708468 3.62862353 73.76750695 8.3125 73.25 C11.58673142 71.06717905 12.02691805 69.99041785 12.94628906 66.28808594 C15.54874823 51.80453321 13.56210035 33.59112608 5.58984375 21.0390625 C5.16832031 20.44867188 4.74679688 19.85828125 4.3125 19.25 C3.92191406 18.68023438 3.53132813 18.11046875 3.12890625 17.5234375 C0.09505984 13.48494032 -3.27986758 11.49702829 -7.6875 9.25 C-7.6875 8.59 -7.6875 7.93 -7.6875 7.25 C-16.1025 7.745 -16.1025 7.745 -24.6875 8.25 C-25.0175 9.24 -25.3475 10.23 -25.6875 11.25 C-27.75 12.4375 -27.75 12.4375 -29.6875 13.25 C-29.6875 12.59 -29.6875 11.93 -29.6875 11.25 C-30.6775 11.58 -31.6675 11.91 -32.6875 12.25 C-31.34236964 6.70133728 -27.16136216 3.45022212 -22.6875 0.25 C-15.88224743 -3.15262628 -6.90339032 -3.21146729 0 0 Z " fill="#097AEE" transform="translate(119.6875,12.75)"/>
<path d="M0 0 C4.29 0 8.58 0 13 0 C13 6.27 13 12.54 13 19 C19.6 19 26.2 19 33 19 C33 22.96 33 26.92 33 31 C26.4 31 19.8 31 13 31 C13.07419518 35.73314088 13.1571924 40.46445849 13.26245117 45.19677734 C13.29559363 46.8047524 13.32365854 48.41284081 13.34643555 50.02099609 C13.38017967 52.34000705 13.43250194 54.65798931 13.48828125 56.9765625 C13.49467117 57.68930328 13.5010611 58.40204407 13.50764465 59.13638306 C13.64746808 63.94159956 14.4659536 68.4659536 18 72 C20.52596259 72.23653523 23.03107207 72.42173692 25.5625 72.5625 C26.27341797 72.60568359 26.98433594 72.64886719 27.71679688 72.69335938 C29.47761912 72.79971777 31.2387832 72.90038846 33 73 C33 76.63 33 80.26 33 84 C25.85010306 87.01048292 18.94265736 86.96998922 11.6875 84.375 C6.31410697 81.98776259 3.63873035 79.11315623 0.88720703 73.88598633 C-0.36393334 69.81616511 -0.24676809 65.99450546 -0.1953125 61.76171875 C-0.1924826 60.88095169 -0.18965271 60.00018463 -0.18673706 59.09272766 C-0.17557833 56.29084455 -0.15048171 53.48928584 -0.125 50.6875 C-0.11496463 48.78320775 -0.10583975 46.87891048 -0.09765625 44.97460938 C-0.07565309 40.31628203 -0.04115294 35.65819594 0 31 C-4.29 31 -8.58 31 -13 31 C-13 27.04 -13 23.08 -13 19 C-8.71 19 -4.42 19 0 19 C0 12.73 0 6.46 0 0 Z " fill="#070707" transform="translate(361,15)"/>
<path d="M0 0 C3.74221181 1.89951749 6.72741571 4.66353769 8.6875 8.375 C9.46160748 12.18229211 9.47704044 15.87503672 9.4375 19.75 C9.49164063 21.25433594 9.49164063 21.25433594 9.546875 22.7890625 C9.546875 29.46876104 8.24837434 33.033127 3.58300781 37.83837891 C-2.35387652 42.65120091 -8.98028507 42.04078902 -16.3125 41.375 C-21.8731122 39.0336896 -24.71480639 34.67388098 -27.3125 29.375 C-29.64018362 21.9234845 -28.60044346 14.35859191 -25.3125 7.375 C-19.6815284 -1.79030484 -9.67776204 -4.37237264 0 0 Z " fill="#FAFAFA" transform="translate(442.3125,46.625)"/>
<path d="M0 0 C2.33524782 2.25740623 4.18705073 4.2805761 6 7 C6 8.32 6 9.64 6 11 C6.66 11.33 7.32 11.66 8 12 C7.52433594 12.66128906 7.52433594 12.66128906 7.0390625 13.3359375 C4.29233752 17.29668457 1.80165396 21.30852107 -0.44921875 25.5703125 C-0.87992676 26.37936035 -1.31063477 27.1884082 -1.75439453 28.02197266 C-2.62034664 29.66240078 -3.47186144 31.31053886 -4.30810547 32.96630859 C-7.36593163 38.73517205 -7.36593163 38.73517205 -10.609375 40.08984375 C-13.67089981 39.97478644 -16.1461727 39.07811254 -19 38 C-19.66 38 -20.32 38 -21 38 C-21.763125 38.763125 -22.52625 39.52625 -23.3125 40.3125 C-27.12273756 44.12273756 -29.34246498 45.91848188 -34.8125 46.1875 C-35.864375 46.125625 -36.91625 46.06375 -38 46 C-38 45.67 -38 45.34 -38 45 C-37.43152344 44.87625 -36.86304688 44.7525 -36.27734375 44.625 C-35.50519531 44.41875 -34.73304687 44.2125 -33.9375 44 C-33.18339844 43.814375 -32.42929687 43.62875 -31.65234375 43.4375 C-24.37952802 39.49582668 -19.928211 31.18044607 -15.625 24.375 C-14.79125854 23.0741748 -14.79125854 23.0741748 -13.94067383 21.74707031 C-12.82083188 19.99881973 -11.70367427 18.24884647 -10.58935547 16.49707031 C-8.69802597 13.52556215 -6.79100078 10.56438532 -4.88232422 7.60400391 C-3.25060407 5.07207036 -1.625034 2.53622877 0 0 Z " fill="#0681F5" transform="translate(71,41)"/>
<path d="M0 0 C2.33442079 1.25968745 3.14570645 1.86251454 4.20703125 4.328125 C4.57183594 4.96234375 4.93664062 5.5965625 5.3125 6.25 C6.97864787 6.58591691 8.64534934 6.91909585 10.3125 7.25 C14.31412367 11.45524612 17.01226385 16.39539507 17.3125 22.25 C17.9725 22.25 18.6325 22.25 19.3125 22.25 C19.3125 23.24 19.3125 24.23 19.3125 25.25 C18.6525 25.25 17.9925 25.25 17.3125 25.25 C16.8175 23.27 16.8175 23.27 16.3125 21.25 C15.36375 21.600625 14.415 21.95125 13.4375 22.3125 C10.3125 23.25 10.3125 23.25 8.3125 22.25 C7.6875 19.1875 7.6875 19.1875 7.3125 16.25 C6.1059375 16.188125 6.1059375 16.188125 4.875 16.125 C0.01174069 14.93051526 -3.8549927 12.46078945 -7.6875 9.25 C-7.6875 8.59 -7.6875 7.93 -7.6875 7.25 C-16.1025 7.745 -16.1025 7.745 -24.6875 8.25 C-25.0175 9.24 -25.3475 10.23 -25.6875 11.25 C-27.75 12.4375 -27.75 12.4375 -29.6875 13.25 C-29.6875 12.59 -29.6875 11.93 -29.6875 11.25 C-30.6775 11.58 -31.6675 11.91 -32.6875 12.25 C-31.34236964 6.70133728 -27.16136216 3.45022212 -22.6875 0.25 C-15.88224743 -3.15262628 -6.90339032 -3.21146729 0 0 Z " fill="#0881F3" transform="translate(119.6875,12.75)"/>
<path d="M0 0 C4.60858448 2.46308727 7.2891083 5.48935514 9.5 10.1875 C10 13 10 13 10 17 C-1.22 17 -12.44 17 -24 17 C-22.93897159 9.57280115 -21.78001085 6.70872852 -16.5625 1.625 C-11.05918578 -0.88528368 -5.9323668 -1.07664148 0 0 Z " fill="#F1F1F1" transform="translate(320,45)"/>
<path d="M0 0 C1.890625 0.21484375 1.890625 0.21484375 4 1 C5.046875 3.06640625 5.046875 3.06640625 5.75 5.5625 C5.99234375 6.38878906 6.2346875 7.21507812 6.484375 8.06640625 C6.65453125 8.70449219 6.8246875 9.34257813 7 10 C7.66 10 8.32 10 9 10 C9.2475 10.94875 9.495 11.8975 9.75 12.875 C10.63667603 16.09515628 10.63667603 16.09515628 13 17 C15 18 15 18 16.25 21.125 C16.4975 22.07375 16.745 23.0225 17 24 C18.98 24.33 20.96 24.66 23 25 C23 27.31 23 29.62 23 32 C24.423125 32.185625 24.423125 32.185625 25.875 32.375 C29 33 29 33 31 35 C31.625 37.625 31.625 37.625 32 40 C34.31 40.33 36.62 40.66 39 41 C39 41.66 39 42.32 39 43 C40.91789713 42.71653722 42.83429183 42.4228972 44.75 42.125 C46.35101563 41.88136719 46.35101563 41.88136719 47.984375 41.6328125 C51.58291157 40.87767918 54.04647568 40.30079552 56.265625 37.2734375 C56.59046875 36.64695313 56.9153125 36.02046875 57.25 35.375 C57.8275 34.26125 58.405 33.1475 59 32 C59.99 32 60.98 32 62 32 C60.60772374 37.25971032 57.30828352 39.98511238 53 43 C47.29240959 45.79037754 40.74796324 45.97880693 34.63671875 44.3828125 C18.00986815 37.89288463 7.87774255 15.99088068 0 1 C0 0.67 0 0.34 0 0 Z " fill="#166FD5" transform="translate(81,56)"/>
<path d="M0 0 C2.59668867 1.84513406 4.71198656 3.76283131 7 6 C6.34 6.33 5.68 6.66 5 7 C2 6 2 6 -0.375 3.5625 C-4.69443436 -0.65409068 -8.50071921 -1.29152198 -14.4375 -1.3125 C-22.44199976 -1.15943308 -26.63768214 1.46108155 -32.58203125 6.5 C-34.25326883 8.05663586 -34.25326883 8.05663586 -35 11 C-33.68 11 -32.36 11 -31 11 C-30.34 11 -29.68 11 -29 11 C-28.67 9.68 -28.34 8.36 -28 7 C-22.39 7 -16.78 7 -11 7 C-11 7.33 -11 7.66 -11 8 C-14.3 8 -17.6 8 -21 8 C-21 8.66 -21 9.32 -21 10 C-21.94875 10.2475 -22.8975 10.495 -23.875 10.75 C-27.52092402 12.20836961 -27.46288631 12.6375638 -29 16 C-30.01260441 17.43758346 -31.05512648 18.8545128 -32.125 20.25 C-32.66382812 20.95640625 -33.20265625 21.6628125 -33.7578125 22.390625 C-34.16773437 22.92171875 -34.57765625 23.4528125 -35 24 C-35.99 23.67 -36.98 23.34 -38 23 C-38.33333333 21.66666667 -38.66666667 20.33333333 -39 19 C-39.99 18.67 -40.98 18.34 -42 18 C-41.505 16.515 -41.505 16.515 -41 15 C-40.34 15 -39.68 15 -39 15 C-38.896875 14.443125 -38.79375 13.88625 -38.6875 13.3125 C-36.42351805 5.69728799 -30.26507856 0.84031701 -23.5625 -2.9375 C-15.08892593 -5.4647063 -7.8626071 -3.90174488 0 0 Z " fill="#0F7FE0" transform="translate(123,13)"/>
<path d="M0 0 C0.33 0 0.66 0 1 0 C0.97643433 0.87567627 0.97643433 0.87567627 0.95239258 1.76904297 C0.88917972 4.47092595 0.85074077 7.17265259 0.8125 9.875 C0.78736328 10.7928125 0.76222656 11.710625 0.73632812 12.65625 C0.63240408 22.49439247 2.89701867 31.15330971 9 39 C15.068193 45.068193 22.85813007 45.37748278 31 46 C31 46.66 31 47.32 31 48 C14.4592121 48.75567051 14.4592121 48.75567051 8.31640625 43.58203125 C7 42 7 42 6 39 C5.54625 38.566875 5.0925 38.13375 4.625 37.6875 C-0.32807559 32.5439215 -1.12490311 26.11929164 -1.1328125 19.296875 C-1.13410156 18.2346875 -1.13539063 17.1725 -1.13671875 16.078125 C-1.13285156 14.97984375 -1.12898437 13.8815625 -1.125 12.75 C-1.13080078 11.079375 -1.13080078 11.079375 -1.13671875 9.375 C-1.13542969 8.31796875 -1.13414062 7.2609375 -1.1328125 6.171875 C-1.13168457 5.2034668 -1.13055664 4.23505859 -1.12939453 3.23730469 C-1 1 -1 1 0 0 Z " fill="#CEF2FD" transform="translate(9,55)"/>
<path d="M0 0 C0.33 0 0.66 0 1 0 C1.03738281 0.90621094 1.07476563 1.81242187 1.11328125 2.74609375 C1.50720141 10.04520269 2.30300838 16.1988907 5 23 C6.77174819 22.91276622 8.54247377 22.80458345 10.3125 22.6875 C11.29863281 22.62949219 12.28476562 22.57148437 13.30078125 22.51171875 C16.29337508 21.94438186 17.2223993 21.42190905 19 19 C19.33 18.01 19.66 17.02 20 16 C20.99 16 21.98 16 23 16 C23 15.34 23 14.68 23 14 C23.66 14 24.32 14 25 14 C25.33 13.01 25.66 12.02 26 11 C26.33 11.66 26.66 12.32 27 13 C25.03689357 15.69599949 23.02918101 18.35346218 21 21 C20.401875 21.804375 19.80375 22.60875 19.1875 23.4375 C15.81847034 25.84394976 12.09517705 26.21629456 8 26 C4.16663966 24.57298265 2.51943937 22.49202492 0.75 18.7734375 C-0.89097071 12.70526457 -0.27215665 6.22936331 0 0 Z " fill="#CFF6FD" transform="translate(24,60)"/>
<path d="M0 0 C3.4776851 6.0279875 3.20794232 12.73922753 3.25 19.5 C3.270625 20.32886719 3.29125 21.15773438 3.3125 22.01171875 C3.34488198 27.10378521 2.8430204 30.5957046 0 35 C-2.76494501 37.24184731 -4.53888168 37.93412595 -8.0625 38.4375 C-11.63988574 37.90469787 -12.75828653 36.75903196 -15 34 C-14.484375 34.165 -13.96875 34.33 -13.4375 34.5 C-10.26636124 35.15049 -7.22781666 35.0620734 -4 35 C-3.360625 33.865625 -2.72125 32.73125 -2.0625 31.5625 C-0.125 28.125 -0.125 28.125 1 27 C1.09931619 25.58620481 1.12969295 24.16727151 1.125 22.75 C1.12757813 21.98171875 1.13015625 21.2134375 1.1328125 20.421875 C1.06191314 17.9920195 1.06191314 17.9920195 0.49609375 15.62890625 C-0.10604289 12.43805621 -0.09527618 9.43234172 -0.0625 6.1875 C-0.05347656 5.02605469 -0.04445312 3.86460938 -0.03515625 2.66796875 C-0.02355469 1.78753906 -0.01195312 0.90710937 0 0 Z " fill="#CEF4FD" transform="translate(131,48)"/>
<path d="M0 0 C5.04631814 4.35818385 8.03127771 10.34183841 11.40234375 16.00195312 C14.43039441 20.94673661 17.10360191 24.80583963 22 28 C24.4190348 28.46484801 24.4190348 28.46484801 26.6875 27.9375 C27.43386719 27.82277344 28.18023437 27.70804688 28.94921875 27.58984375 C31.2815909 27.03117748 31.2815909 27.03117748 34 25 C32.25 28.875 32.25 28.875 30 30 C24.97106679 30.42484112 20.5683532 30.35785972 16 28 C16 27.01 16 26.02 16 25 C15.34 25 14.68 25 14 25 C12.375 23.75 12.375 23.75 11 22 C11 20.68 11 19.36 11 18 C10.34 18 9.68 18 9 18 C8.69707031 17.33613281 8.39414063 16.67226562 8.08203125 15.98828125 C5.60800254 10.77378998 3.39546803 6.76754403 -1 3 C-0.67 2.01 -0.34 1.02 0 0 Z " fill="#2774C6" transform="translate(98,57)"/>
<path d="M0 0 C1.29808594 0.01289063 2.59617187 0.02578125 3.93359375 0.0390625 C7.28396368 0.34921515 9.60205487 0.81745238 12.5625 2.375 C13.26187532 3.69147119 13.92979133 5.02522151 14.5625 6.375 C15.5834375 6.8390625 15.5834375 6.8390625 16.625 7.3125 C17.264375 7.663125 17.90375 8.01375 18.5625 8.375 C19.3125 11 19.3125 11 19.5625 13.375 C19.12679687 12.98828125 18.69109375 12.6015625 18.2421875 12.203125 C10.25879746 5.0937419 10.25879746 5.0937419 0.25 2.0625 C-5.8097296 2.57603641 -8.97545339 5.69487359 -12.8125 10.125 C-13.6950637 11.20218031 -14.57281695 12.2834143 -15.4375 13.375 C-15.7675 12.385 -16.0975 11.395 -16.4375 10.375 C-14.82255158 8.20635498 -13.2864968 6.3190609 -11.4375 4.375 C-10.87289062 3.65957031 -10.30828125 2.94414062 -9.7265625 2.20703125 C-6.47260794 -0.39724296 -4.11295648 -0.08967794 0 0 Z " fill="#1962BF" transform="translate(48.4375,22.625)"/>
<path d="M0 0 C0.66 0.33 1.32 0.66 2 1 C1.67 3.64 1.34 6.28 1 9 C0.34 9 -0.32 9 -1 9 C-2.40044041 20.628657 -2.09657994 32.30936996 -2 44 C-7.74514087 32.76787768 -5.39092278 17.81725668 -2.19921875 6.046875 C-1.5238568 4.01118684 -0.77228787 2.00092766 0 0 Z " fill="#3180D0" transform="translate(14,40)"/>
<path d="M0 0 C0.66 0 1.32 0 2 0 C1.566875 1.56234375 1.566875 1.56234375 1.125 3.15625 C-1.98053838 14.91362204 -5.17460794 27.81364132 1 39 C1 39.66 1 40.32 1 41 C2.32 41.66 3.64 42.32 5 43 C1.625 42.75 1.625 42.75 -2 42 C-5.35510953 37.28735526 -4.36882726 31.0184304 -4.375 25.5 C-4.39949219 24.37851563 -4.42398437 23.25703125 -4.44921875 22.1015625 C-4.47710312 14.05227467 -2.99068716 7.46231515 0 0 Z " fill="#1E71C7" transform="translate(27,43)"/>
<path d="M0 0 C0.33 0 0.66 0 1 0 C1 2.31 1 4.62 1 7 C-0.32 7.33 -1.64 7.66 -3 8 C-3 8.99 -3 9.98 -3 11 C-7.86716483 16.01926373 -13.85278372 17.049598 -20.5625 17.3125 C-24.97731328 17.22818933 -28.09112083 15.99602341 -32 14 C-29 13 -29 13 -26 14 C-17.96406588 14.73053947 -12.416986 13.43131696 -5.75 8.6875 C-2.94219462 5.94350838 -1.50628339 3.59834366 0 0 Z " fill="#DAF7FD" transform="translate(144,86)"/>
<path d="M0 0 C0.66 0 1.32 0 2 0 C3.83134561 7.01289093 4.30624767 13.45498762 4.25 20.6875 C4.25773438 21.69361328 4.26546875 22.69972656 4.2734375 23.73632812 C4.25987041 28.88164805 4.06472017 33.19051293 2 38 C1.34 38 0.68 38 0 38 C0.16242188 37.25492188 0.32484375 36.50984375 0.4921875 35.7421875 C1.1997398 30.52807132 1.14420384 25.38045071 1.125 20.125 C1.12886719 19.07441406 1.13273438 18.02382812 1.13671875 16.94140625 C1.12953142 11.198731 0.8620672 5.67869665 0 0 Z " fill="#D9F8FE" transform="translate(145,48)"/>
<path d="M0 0 C2.5 2.25 2.5 2.25 5 5 C5 6.32 5 7.64 5 9 C5.66 9.33 6.32 9.66 7 10 C6.01 10.495 6.01 10.495 5 11 C4.01 10.67 3.02 10.34 2 10 C2 11.65 2 13.3 2 15 C1.67 13.68 1.34 12.36 1 11 C-0.32 11.33 -1.64 11.66 -3 12 C-4.15837626 7.94568308 -3.83691257 5.78187881 -2 2 C-1.34 2 -0.68 2 0 2 C0 1.34 0 0.68 0 0 Z " fill="#0382F4" transform="translate(72,43)"/>
<path d="M0 0 C9.16323004 7.77486185 14.44862439 19.78492252 15.6875 31.5625 C15.80226028 33.04088249 15.91038941 34.51988019 16 36 C15.34 36 14.68 36 14 36 C13.67 32.37 13.34 28.74 13 25 C12.34 25 11.68 25 11 25 C9.39644899 21.49223216 8.77963136 18.85645121 9 15 C8.34 15 7.68 15 7 15 C6.5875 13.96875 6.175 12.9375 5.75 11.875 C4.22831497 8.28557072 2.17936992 5.23147954 0 2 C0 1.34 0 0.68 0 0 Z " fill="#1D84D0" transform="translate(130,20)"/>
<path d="M0 0 C2.475 0.495 2.475 0.495 5 1 C5.66 2.98 6.32 4.96 7 7 C8.65 7 10.3 7 12 7 C11.83628906 7.69480469 11.67257813 8.38960937 11.50390625 9.10546875 C10.95904004 12.2352816 10.90261517 15.13798083 10.9375 18.3125 C10.95103516 19.91544922 10.95103516 19.91544922 10.96484375 21.55078125 C10.97644531 22.35902344 10.98804688 23.16726562 11 24 C9.41793722 21.01011043 8.27299056 18.01354237 7.1875 14.8125 C5.30657878 9.53172496 2.88823152 4.79399084 0 0 Z " fill="#177EE3" transform="translate(122,28)"/>
<path d="M0 0 C0.99 0 1.98 0 3 0 C1.60772374 5.25971032 -1.69171648 7.98511238 -6 11 C-12.13601119 13.99982769 -19.14795081 13.78677219 -25.625 12 C-26.40875 11.67 -27.1925 11.34 -28 11 C-24.81868378 10.03596478 -22.12184099 9.98173849 -18.8125 10.125 C-13.49664256 10.14632028 -8.64030457 9.79188449 -4 7 C-2.1298067 4.72544058 -1.18865575 2.7390763 0 0 Z " fill="#3A81CE" transform="translate(140,88)"/>
<path d="M0 0 C1.890625 0.21484375 1.890625 0.21484375 4 1 C5.046875 3.06640625 5.046875 3.06640625 5.75 5.5625 C5.99234375 6.38878906 6.2346875 7.21507812 6.484375 8.06640625 C6.65453125 8.70449219 6.8246875 9.34257813 7 10 C7.66 10 8.32 10 9 10 C9.2475 10.94875 9.495 11.8975 9.75 12.875 C10.6857077 16.08693191 10.6857077 16.08693191 13.125 17.375 C14.053125 17.684375 14.053125 17.684375 15 18 C15 19.98 15 21.96 15 24 C10.5609551 20.22681183 8.07767772 15.31103267 5.25 10.3125 C4.74339844 9.43271484 4.23679687 8.55292969 3.71484375 7.64648438 C0 1.1530176 0 1.1530176 0 0 Z " fill="#1E65BF" transform="translate(81,56)"/>
<path d="M0 0 C2.75 -0.3125 2.75 -0.3125 6 0 C8.4375 2.125 8.4375 2.125 10 5 C9.75 8.3125 9.75 8.3125 9 11 C8.34 11 7.68 11 7 11 C6.67 9.35 6.34 7.7 6 6 C5.1028125 6.2784375 5.1028125 6.2784375 4.1875 6.5625 C2 7 2 7 -1 6 C-0.67 4.02 -0.34 2.04 0 0 Z " fill="#0369E6" transform="translate(75,29)"/>
<path d="M0 0 C2.59668867 1.84513406 4.71198656 3.76283131 7 6 C6.34 6.33 5.68 6.66 5 7 C2 6 2 6 -0.375 3.5625 C-4.69351434 -0.65319257 -8.44220816 -1.27818428 -14.375 -1.25 C-19.31151995 -1.18276023 -23.383923 -0.71761005 -28 1 C-26.65155261 -1.69689479 -24.80242974 -2.30696382 -22.078125 -3.38671875 C-14.36641731 -5.66254226 -7.0188694 -3.48304797 0 0 Z " fill="#3282CD" transform="translate(123,13)"/>
<path d="M0 0 C2.4375 1.125 2.4375 1.125 5 3 C6 6 6 6 6 9 C4.5625 10.875 4.5625 10.875 3 12 C1.5 10.625 1.5 10.625 0 9 C0 8.34 0 7.68 0 7 C-0.99 6.67 -1.98 6.34 -3 6 C-2.67 5.01 -2.34 4.02 -2 3 C-1.34 3 -0.68 3 0 3 C0 2.01 0 1.02 0 0 Z " fill="#117FF1" transform="translate(84,25)"/>
<path d="M0 0 C1.65 0.33 3.3 0.66 5 1 C4.09970429 2.34444159 3.17911978 3.67531438 2.25 5 C1.73953125 5.7425 1.2290625 6.485 0.703125 7.25 C-0.13992187 8.11625 -0.13992187 8.11625 -1 9 C-2.32 9 -3.64 9 -5 9 C-7.25 6 -7.25 6 -9 3 C-6.03 3.495 -6.03 3.495 -3 4 C-2.01 2.68 -1.02 1.36 0 0 Z " fill="#D1F4FD" transform="translate(83,18)"/>
<path d="M0 0 C8 0 16 0 24 0 C24 0.66 24 1.32 24 2 C23.39414062 1.96519531 22.78828125 1.93039062 22.1640625 1.89453125 C15.56324132 1.68127395 10.20067142 2.8041659 4 5 C3.01 5.33 2.02 5.66 1 6 C0.34 5.34 -0.32 4.68 -1 4 C0.32 4 1.64 4 3 4 C3 3.34 3 2.68 3 2 C2.01 2 1.02 2 0 2 C0 1.34 0 0.68 0 0 Z " fill="#D4EDF8" transform="translate(32,8)"/>
<path d="M0 0 C1.58206057 0.00667536 3.16410534 0.0186375 4.74609375 0.03515625 C5.55240234 0.03966797 6.35871094 0.04417969 7.18945312 0.04882812 C9.18753131 0.06065107 11.18557158 0.07858711 13.18359375 0.09765625 C13.18359375 0.42765625 13.18359375 0.75765625 13.18359375 1.09765625 C9.88359375 1.09765625 6.58359375 1.09765625 3.18359375 1.09765625 C3.18359375 1.75765625 3.18359375 2.41765625 3.18359375 3.09765625 C1.76046875 3.46890625 1.76046875 3.46890625 0.30859375 3.84765625 C-2.88995263 4.75929091 -2.88995263 4.75929091 -4.00390625 7.09765625 C-4.27203125 7.75765625 -4.54015625 8.41765625 -4.81640625 9.09765625 C-5.80640625 9.75765625 -6.79640625 10.41765625 -7.81640625 11.09765625 C-7.81640625 10.10765625 -7.81640625 9.11765625 -7.81640625 8.09765625 C-7.15640625 8.09765625 -6.49640625 8.09765625 -5.81640625 8.09765625 C-5.67203125 6.96328125 -5.52765625 5.82890625 -5.37890625 4.66015625 C-4.66192767 0.11929191 -4.66192767 0.11929191 0 0 Z " fill="#1D7ED9" transform="translate(98.81640625,19.90234375)"/>
<path d="M0 0 C4.65614415 1.64585315 8.47929416 3.58876478 11 8 C10.01 8.495 10.01 8.495 9 9 C7.5 7.625 7.5 7.625 6 6 C6 5.34 6 4.68 6 4 C-3.03378934 2.92468983 -3.03378934 2.92468983 -12 4 C-8.1236074 -0.05259226 -5.68254862 -0.45827005 0 0 Z " fill="#CDEDFC" transform="translate(52,24)"/>
<path d="M0 0 C0.33 0.66 0.66 1.32 1 2 C0.67 2.66 0.34 3.32 0 4 C-0.66 4 -1.32 4 -2 4 C-2.0825 4.5775 -2.165 5.155 -2.25 5.75 C-3.21398944 8.64196832 -4.84721823 9.84721823 -7 12 C-9.58125499 16.22387181 -11.82908844 20.5496313 -14 25 C-15 22 -15 22 -14.25 19.8359375 C-10.47974492 12.41324781 -6.00554084 5.80535614 0 0 Z " fill="#1F61B1" transform="translate(30,16)"/>
<path d="M0 0 C5.875 4.75 5.875 4.75 7 7 C10.33537489 5.88820837 11.63707344 4.52588702 14 2 C13.4375 4.8125 13.4375 4.8125 12 8 C9.71463927 9.44088563 7.59292376 10.13569208 5 11 C5 10.34 5 9.68 5 9 C3.68 8.67 2.36 8.34 1 8 C1.66 7.67 2.32 7.34 3 7 C3 6.34 3 5.68 3 5 C2.34 4.67 1.68 4.34 1 4 C0.375 1.9375 0.375 1.9375 0 0 Z " fill="#206DD2" transform="translate(72,20)"/>
<path d="M0 0 C0.99 1.0209375 0.99 1.0209375 2 2.0625 C5.49468234 5.56725347 9.25130779 8.77221788 13 12 C12.34 12.66 11.68 13.32 11 14 C10.01 14 9.02 14 8 14 C7.34 12.02 6.68 10.04 6 8 C5.01 8 4.02 8 3 8 C2.566875 7.0409375 2.566875 7.0409375 2.125 6.0625 C1.17176549 3.84793921 1.17176549 3.84793921 -1 3 C-0.67 2.01 -0.34 1.02 0 0 Z " fill="#D5F1FC" transform="translate(99,86)"/>
<path d="M0 0 C1.32 0 2.64 0 4 0 C3.1875 2.9375 3.1875 2.9375 2 6 C1.01 6.33 0.02 6.66 -1 7 C-1.33 8.98 -1.66 10.96 -2 13 C-4.09350689 9.5980513 -4.17942163 6.94727588 -4 3 C-3.34 2.67 -2.68 2.34 -2 2 C-1.67 2.66 -1.34 3.32 -1 4 C-0.67 2.68 -0.34 1.36 0 0 Z " fill="#0A62D0" transform="translate(28,36)"/>
<path d="M0 0 C0.67804687 0.13277344 1.35609375 0.26554687 2.0546875 0.40234375 C8.35792677 1.59838777 14.60635885 2.47297535 21 3 C21 3.66 21 4.32 21 5 C13.37048445 5.34855655 7.07555499 5.0017506 0 2 C0 1.34 0 0.68 0 0 Z " fill="#E0FCFE" transform="translate(19,98)"/>
<path d="M0 0 C2.9552728 2.61778794 4.75832727 5.67583335 6.75 9.0625 C7.38421875 10.12597656 8.0184375 11.18945312 8.671875 12.28515625 C9.11015625 13.18105469 9.5484375 14.07695313 10 15 C9.67 15.66 9.34 16.32 9 17 C8.67 16.01 8.34 15.02 8 14 C7.01 14.33 6.02 14.66 5 15 C4.49632243 13.54293274 3.99717444 12.08429904 3.5 10.625 C3.2215625 9.81289063 2.943125 9.00078125 2.65625 8.1640625 C2 6 2 6 2 4 C1.01 3.67 0.02 3.34 -1 3 C-0.67 2.01 -0.34 1.02 0 0 Z " fill="#2568C2" transform="translate(88,40)"/>
<path d="M0 0 C2.5625 2.25 2.5625 2.25 5 5 C4.6779357 8.20749748 3.20996506 10.56575252 1.5 13.25 C1.0565625 13.95640625 0.613125 14.6628125 0.15625 15.390625 C-0.2253125 15.92171875 -0.606875 16.4528125 -1 17 C-1.33 17 -1.66 17 -2 17 C-2 15.02 -2 13.04 -2 11 C-0.68 10.67 0.64 10.34 2 10 C1.34 6.7 0.68 3.4 0 0 Z " fill="#CEF2FB" transform="translate(66,35)"/>
<path d="M0 0 C0.33 1.32 0.66 2.64 1 4 C0.34 4 -0.32 4 -1 4 C-1.12375 4.7425 -1.2475 5.485 -1.375 6.25 C-1.95486701 8.80141485 -2.73708739 10.7267573 -4 13 C-4.66 13 -5.32 13 -6 13 C-7.38938077 14.96147874 -8.7260411 16.96166576 -10 19 C-10 15.70767651 -9.53392235 14.89675367 -7.8125 12.20703125 C-7.36132812 11.49482422 -6.91015625 10.78261719 -6.4453125 10.04882812 C-5.96835938 9.31083984 -5.49140625 8.57285156 -5 7.8125 C-4.52304688 7.06291016 -4.04609375 6.31332031 -3.5546875 5.54101562 C-2.37575044 3.69008444 -1.19070421 1.84337479 0 0 Z " fill="#2883D3" transform="translate(71,41)"/>
<path d="M0 0 C0.66 0.33 1.32 0.66 2 1 C1.38125 2.0725 0.7625 3.145 0.125 4.25 C-1.3323679 6.79780984 -2.72924491 9.35259355 -4 12 C-4.66 12 -5.32 12 -6 12 C-6.12375 12.804375 -6.2475 13.60875 -6.375 14.4375 C-6.58125 15.283125 -6.7875 16.12875 -7 17 C-7.66 17.33 -8.32 17.66 -9 18 C-7.9515074 10.87025034 -4.18697132 5.65806935 0 0 Z " fill="#0662D7" transform="translate(25,24)"/>
<path d="M0 0 C0.29648437 0.59554687 0.59296875 1.19109375 0.8984375 1.8046875 C1.7921618 3.58579764 2.70563425 5.35698895 3.625 7.125 C5 10 5 10 5 12 C6.32 12.66 7.64 13.32 9 14 C5.625 13.75 5.625 13.75 2 13 C-0.01650075 10.10451174 -0.22698653 7.71754203 -0.125 4.25 C-0.10695313 3.45078125 -0.08890625 2.6515625 -0.0703125 1.828125 C-0.04710938 1.22484375 -0.02390625 0.6215625 0 0 Z " fill="#1F83D7" transform="translate(23,72)"/>
<path d="M0 0 C0.66 0.33 1.32 0.66 2 1 C1.01 2.98 0.02 4.96 -1 7 C-5.62 7 -10.24 7 -15 7 C-15 6.67 -15 6.34 -15 6 C-13.7625 5.855625 -12.525 5.71125 -11.25 5.5625 C-8.43495501 5.21311498 -5.7298503 4.79620634 -3 4 C-3 3.34 -3 2.68 -3 2 C-2.01 1.34 -1.02 0.68 0 0 Z " fill="#2B2B2B" transform="translate(231,72)"/>
<path d="M0 0 C3.33557632 2.9905167 5.15083921 5.93184627 7 10 C6.01 10.33 5.02 10.66 4 11 C4 10.01 4 9.02 4 8 C3.34 8 2.68 8 2 8 C2 6.68 2 5.36 2 4 C1.34 4 0.68 4 0 4 C0 4.66 0 5.32 0 6 C-0.99 6 -1.98 6 -3 6 C-1.125 1.125 -1.125 1.125 0 0 Z " fill="#C8EFFB" transform="translate(78,53)"/>
<path d="M0 0 C0.33 0 0.66 0 1 0 C1 1.65 1 3.3 1 5 C0.01 5 -0.98 5 -2 5 C-2.09152344 5.56203125 -2.18304688 6.1240625 -2.27734375 6.703125 C-3.18700014 9.59435721 -4.6611097 11.39919018 -6.5625 13.75 C-7.52349609 14.94882813 -7.52349609 14.94882813 -8.50390625 16.171875 C-8.99761719 16.77515625 -9.49132813 17.3784375 -10 18 C-10 14.7292675 -9.6074167 14.03913376 -7.84765625 11.42578125 C-7.40099609 10.75869141 -6.95433594 10.09160156 -6.49414062 9.40429688 C-6.02169922 8.71400391 -5.54925781 8.02371094 -5.0625 7.3125 C-4.59392578 6.61060547 -4.12535156 5.90871094 -3.64257812 5.18554688 C-2.46027798 3.43506221 -1.23375707 1.71460598 0 0 Z " fill="#2B83CF" transform="translate(59,60)"/>
<path d="M0 0 C0.66 0.99 1.32 1.98 2 3 C1.34 3.66 0.68 4.32 0 5 C-0.68132451 6.66072849 -1.34742127 8.327767 -2 10 C-2.99 11.485 -2.99 11.485 -4 13 C-4.66 13 -5.32 13 -6 13 C-6 13.66 -6 14.32 -6 15 C-6.66 14.67 -7.32 14.34 -8 14 C-5.36 9.38 -2.72 4.76 0 0 Z " fill="#C7F0FC" transform="translate(74,59)"/>
<path d="M0 0 C0.99 0 1.98 0 3 0 C1.65072455 4.53847198 -0.19159348 8.31932246 -2.625 12.375 C-3.25664063 13.43460938 -3.88828125 14.49421875 -4.5390625 15.5859375 C-5.02117187 16.38257812 -5.50328125 17.17921875 -6 18 C-6.33 16.68 -6.66 15.36 -7 14 C-6.34 14 -5.68 14 -5 14 C-5 12.68 -5 11.36 -5 10 C-4.34 10 -3.68 10 -3 10 C-2.01 6.7 -1.02 3.4 0 0 Z " fill="#1F7ED1" transform="translate(74,53)"/>
<path d="M0 0 C0.33 0 0.66 0 1 0 C1.02578125 0.89460938 1.0515625 1.78921875 1.078125 2.7109375 C1.4468187 10.57081687 2.49765211 16.93014425 6 24 C5.34 24 4.68 24 4 24 C-1.12146904 16.31779644 -0.3881303 8.88387128 0 0 Z " fill="#ADDFF9" transform="translate(24,60)"/>
<path d="M0 0 C-2.1917718 2.1917718 -4.55440996 3.48009386 -7.24609375 4.98046875 C-9.29187842 6.16966652 -11.15323595 7.52258876 -13 9 C-13 8.01 -13 7.02 -13 6 C-12.34 5.67 -11.68 5.34 -11 5 C-10.5359375 4.01 -10.5359375 4.01 -10.0625 3 C-7.9696109 -0.93955596 -3.96181374 -0.08804031 0 0 Z " fill="#CAF2FD" transform="translate(101,10)"/>
<path d="M0 0 C0.33 0 0.66 0 1 0 C1.02893932 3.62498334 1.04677792 7.24993713 1.0625 10.875 C1.07087891 11.90753906 1.07925781 12.94007812 1.08789062 14.00390625 C1.09111328 14.99003906 1.09433594 15.97617188 1.09765625 16.9921875 C1.10289307 17.90339355 1.10812988 18.81459961 1.11352539 19.75341797 C1 22 1 22 0 24 C-0.66 24 -1.32 24 -2 24 C-1.76990234 22.80503906 -1.76990234 22.80503906 -1.53515625 21.5859375 C-0.89038893 17.26552585 -0.64957112 12.98462602 -0.4375 8.625 C-0.39431641 7.79355469 -0.35113281 6.96210937 -0.30664062 6.10546875 C-0.20138195 4.07046772 -0.10026928 2.03525297 0 0 Z " fill="#C1EBFE" transform="translate(147,62)"/>
<path d="M0 0 C1.61013585 0.73709784 3.21292391 1.49025857 4.8125 2.25 C5.70582031 2.66765625 6.59914063 3.0853125 7.51953125 3.515625 C10.10928331 5.06539789 11.38180834 6.48400766 13 9 C11.35 9 9.7 9 8 9 C8 8.01 8 7.02 8 6 C5.69 5.34 3.38 4.68 1 4 C0.67 2.68 0.34 1.36 0 0 Z " fill="#1C63C5" transform="translate(59,11)"/>
<path d="M0 0 C0.99 0 1.98 0 3 0 C3.66 2.31 4.32 4.62 5 7 C6.32 7.33 7.64 7.66 9 8 C9 9.65 9 11.3 9 13 C4.6310305 9.69900082 2.0861798 7.21544951 0 2 C0 1.34 0 0.68 0 0 Z " fill="#2780D6" transform="translate(12,84)"/>
<path d="M0 0 C0.33 1.32 0.66 2.64 1 4 C0.360625 4.28875 -0.27875 4.5775 -0.9375 4.875 C-3.15206079 5.82823451 -3.15206079 5.82823451 -4 8 C-7.47325181 9.1577506 -10.36067448 9.06866652 -14 9 C-14 8.67 -14 8.34 -14 8 C-13.40832031 7.84144531 -12.81664062 7.68289062 -12.20703125 7.51953125 C-6.78430074 5.91836612 -3.64049549 4.34510752 0 0 Z " fill="#257ECE" transform="translate(47,78)"/>
<path d="M0 0 C2.5 2.25 2.5 2.25 5 5 C5 6.32 5 7.64 5 9 C5.66 9.33 6.32 9.66 7 10 C6.01 10.495 6.01 10.495 5 11 C2.10067643 8.60490662 1.49831724 6.68754757 1 3 C0.01 3.33 -0.98 3.66 -2 4 C-2 3.34 -2 2.68 -2 2 C-1.34 2 -0.68 2 0 2 C0 1.34 0 0.68 0 0 Z " fill="#127FF0" transform="translate(72,43)"/>
<path d="M0 0 C0.99 0.33 1.98 0.66 3 1 C2 3 2 3 -0.375 4.25 C-3.59139887 6.39426591 -4.51716777 8.48802894 -6 12 C-6.66 11.67 -7.32 11.34 -8 11 C-8 10.01 -8 9.02 -8 8 C-7.34 8 -6.68 8 -6 8 C-5.7525 7.236875 -5.505 6.47375 -5.25 5.6875 C-3.8744729 2.73011673 -2.84548949 1.55208517 0 0 Z " fill="#1261CA" transform="translate(36,12)"/>
<path d="M0 0 C0.99 0.33 1.98 0.66 3 1 C1.85845641 2.83600745 0.71165684 4.66874805 -0.4375 6.5 C-1.07558594 7.5209375 -1.71367188 8.541875 -2.37109375 9.59375 C-2.90863281 10.3878125 -3.44617187 11.181875 -4 12 C-4.33 12 -4.66 12 -5 12 C-5 10.35 -5 8.7 -5 7 C-4.01 7 -3.02 7 -2 7 C-1.855625 6.030625 -1.71125 5.06125 -1.5625 4.0625 C-1 1 -1 1 0 0 Z " fill="#D5F8FD" transform="translate(61,52)"/>
<path d="M0 0 C0.99 0.495 0.99 0.495 2 1 C2.8515625 3.58203125 2.8515625 3.58203125 3.625 6.8125 C3.88539063 7.87082031 4.14578125 8.92914063 4.4140625 10.01953125 C5 13 5 13 5 17 C4.34 17 3.68 17 3 17 C2.67 13.37 2.34 9.74 2 6 C1.34 6 0.68 6 0 6 C0 4.02 0 2.04 0 0 Z " fill="#2981CD" transform="translate(141,39)"/>
<path d="M0 0 C0.99 0 1.98 0 3 0 C5 3 5 3 5 6 C6.32 6.33 7.64 6.66 9 7 C8.67 8.65 8.34 10.3 8 12 C5.34629874 10.67314937 4.82917979 9.15891751 3.4375 6.5625 C3.00308594 5.75941406 2.56867188 4.95632812 2.12109375 4.12890625 C1.40013923 2.75984628 0.6919683 1.38393659 0 0 Z " fill="#C3ECFB" transform="translate(131,20)"/>
<path d="M0 0 C5.77475542 0.65997205 9.11847275 3.91418184 13 8 C12.67 8.99 12.34 9.98 12 11 C11.46890625 10.45730469 10.9378125 9.91460937 10.390625 9.35546875 C9.68421875 8.64003906 8.9778125 7.92460938 8.25 7.1875 C7.55390625 6.47980469 6.8578125 5.77210937 6.140625 5.04296875 C4.18571355 3.17724121 2.19661447 1.56830358 0 0 Z " fill="#276BBC" transform="translate(55,25)"/>
<path d="M0 0 C1.58246707 -0.08153933 3.16616273 -0.13943557 4.75 -0.1875 C6.07257813 -0.23970703 6.07257813 -0.23970703 7.421875 -0.29296875 C10 0 10 0 14 3 C8.72 3 3.44 3 -2 3 C-1.34 2.67 -0.68 2.34 0 2 C0 1.34 0 0.68 0 0 Z " fill="#C0ECFD" transform="translate(102,21)"/>
<path d="M0 0 C3.2626876 3.08632611 6.02235218 5.93483504 8 10 C7.67 10.66 7.34 11.32 7 12 C6.01 11.34 5.02 10.68 4 10 C4 8.68 4 7.36 4 6 C3.01 5.67 2.02 5.34 1 5 C0.67 3.35 0.34 1.7 0 0 Z " fill="#C4EFFC" transform="translate(120,27)"/>
<path d="M0 0 C0.33 0 0.66 0 1 0 C1.375 3.25 1.375 3.25 1 7 C-2 9.4375 -2 9.4375 -5 11 C-5.66 10.67 -6.32 10.34 -7 10 C-6.21625 9.0925 -5.4325 8.185 -4.625 7.25 C-2.69947504 4.94809764 -1.17794259 2.78422793 0 0 Z " fill="#C7F3FE" transform="translate(144,86)"/>
<path d="M0 0 C2.475 0.495 2.475 0.495 5 1 C6.58706842 5.1077065 7.10191901 6.59232396 6 11 C4.02 7.37 2.04 3.74 0 0 Z " fill="#1B81D1" transform="translate(122,28)"/>
<path d="M0 0 C0.99 0.33 1.98 0.66 3 1 C1.35 4.3 -0.3 7.6 -2 11 C-2.33 11 -2.66 11 -3 11 C-2.88590407 9.54077307 -2.75834456 8.08259402 -2.625 6.625 C-2.55539062 5.81289063 -2.48578125 5.00078125 -2.4140625 4.1640625 C-2 2 -2 2 0 0 Z " fill="#D4F0FB" transform="translate(18,27)"/>
<path d="M0 0 C1 3 1 3 -0.125 6.125 C-2 9 -2 9 -4.6171875 9.6796875 C-5.79667969 9.83824219 -5.79667969 9.83824219 -7 10 C-6.02223933 8.51990357 -5.0427506 7.04094856 -4.0625 5.5625 C-3.51722656 4.73878906 -2.97195312 3.91507812 -2.41015625 3.06640625 C-1 1 -1 1 0 0 Z " fill="#D0F3FE" transform="translate(62,80)"/>
<path d="M0 0 C7.75 0.875 7.75 0.875 10 2 C9.67 3.32 9.34 4.64 9 6 C6.03 4.35 3.06 2.7 0 1 C0 0.67 0 0.34 0 0 Z " fill="#C6E7FA" transform="translate(58,10)"/>
<path d="M0 0 C1.32 0.33 2.64 0.66 4 1 C3.27683594 1.61488281 3.27683594 1.61488281 2.5390625 2.2421875 C1.90742188 2.78101563 1.27578125 3.31984375 0.625 3.875 C-0.00148438 4.40867187 -0.62796875 4.94234375 -1.2734375 5.4921875 C-2.55836651 6.61432007 -3.79371975 7.79371975 -5 9 C-4.75 6.625 -4.75 6.625 -4 4 C-1.9375 2.6875 -1.9375 2.6875 0 2 C0 1.34 0 0.68 0 0 Z " fill="#DEF4FD" transform="translate(28,15)"/>
<path d="M0 0 C0.99 0 1.98 0 3 0 C3.33 1.65 3.66 3.3 4 5 C2.02 5 0.04 5 -2 5 C-2 4.01 -2 3.02 -2 2 C-1.34 2 -0.68 2 0 2 C0 1.34 0 0.68 0 0 Z " fill="#096BE5" transform="translate(106,75)"/>
<path d="M0 0 C0.33 0.66 0.66 1.32 1 2 C0.67 2.66 0.34 3.32 0 4 C-0.66 4 -1.32 4 -2 4 C-2.103125 4.639375 -2.20625 5.27875 -2.3125 5.9375 C-2.539375 6.618125 -2.76625 7.29875 -3 8 C-3.99 8.33 -4.98 8.66 -6 9 C-5.52797514 4.75177626 -3.03344482 2.80010291 0 0 Z " fill="#2368B7" transform="translate(30,16)"/>
<path d="M0 0 C0.99 0.33 1.98 0.66 3 1 C0.69 3.64 -1.62 6.28 -4 9 C-4.33 8.01 -4.66 7.02 -5 6 C-3.59554165 3.7363436 -1.8032087 1.9791315 0 0 Z " fill="#2866B5" transform="translate(37,27)"/>
<path d="M0 0 C0.99 0 1.98 0 3 0 C1.52307692 4.67692308 1.52307692 4.67692308 -1.125 6.3125 C-2.053125 6.6528125 -2.053125 6.6528125 -3 7 C-2.690625 6.401875 -2.38125 5.80375 -2.0625 5.1875 C-0.89790296 2.91043228 -0.89790296 2.91043228 0 0 Z " fill="#217ED2" transform="translate(140,88)"/>
<path d="M0 0 C0.66 0.33 1.32 0.66 2 1 C0.35 3.64 -1.3 6.28 -3 9 C-3.33 7.68 -3.66 6.36 -4 5 C-2.0625 2.25 -2.0625 2.25 0 0 Z " fill="#2A83D6" transform="translate(65,72)"/>
<path d="M0 0 C2 1.8125 2 1.8125 4 4 C4 4.99 4 5.98 4 7 C2.0625 6.25 2.0625 6.25 0 5 C-0.8125 2.9375 -0.8125 2.9375 -1 1 C-0.67 0.67 -0.34 0.34 0 0 Z " fill="#216AB9" transform="translate(98,57)"/>
<path d="M0 0 C1.32 0.33 2.64 0.66 4 1 C4.66 3.64 5.32 6.28 6 9 C2.91910327 6.22719294 1.31224548 3.93673644 0 0 Z " fill="#1E62B9" transform="translate(81,56)"/>
<path d="M0 0 C1.32 0.33 2.64 0.66 4 1 C4.33 3.31 4.66 5.62 5 8 C2.74754119 5.31158141 1.11786042 3.35358125 0 0 Z " fill="#D0EDFC" transform="translate(96,52)"/>
<path d="M0 0 C0.33 0 0.66 0 1 0 C1 1.65 1 3.3 1 5 C0.01 5 -0.98 5 -2 5 C-2.33 6.32 -2.66 7.64 -3 9 C-3.33 8.01 -3.66 7.02 -4 6 C-2.125 2.8125 -2.125 2.8125 0 0 Z " fill="#C3E9FE" transform="translate(91,31)"/>
<path d="M0 0 C1.65 0.33 3.3 0.66 5 1 C3.68 2.32 2.36 3.64 1 5 C0.01 4.34 -0.98 3.68 -2 3 C-1.34 2.01 -0.68 1.02 0 0 Z " fill="#E5F2FD" transform="translate(83,18)"/>
<path d="M0 0 C-2 2 -2 2 -5.625 2.125 C-6.73875 2.08375 -7.8525 2.0425 -9 2 C-9 1.34 -9 0.68 -9 0 C-5.93109813 -1.53445094 -3.29905734 -0.54984289 0 0 Z " fill="#0E81F0" transform="translate(33,86)"/>
<path d="M0 0 C1.32 0.33 2.64 0.66 4 1 C3.67 1.99 3.34 2.98 3 4 C3.66 4 4.32 4 5 4 C4.67 4.99 4.34 5.98 4 7 C0 2.25 0 2.25 0 0 Z " fill="#C6EDFB" transform="translate(111,75)"/>
<path d="M0 0 C0.33 0.66 0.66 1.32 1 2 C1.66 2 2.32 2 3 2 C3.33 4.31 3.66 6.62 4 9 C1.74754119 6.31158141 0.11786042 4.35358125 -1 1 C-0.67 0.67 -0.34 0.34 0 0 Z " fill="#3170C1" transform="translate(87,64)"/>
<path d="M0 0 C0.66 0.33 1.32 0.66 2 1 C1.67 3.64 1.34 6.28 1 9 C0.34 8.34 -0.32 7.68 -1 7 C-0.625 3.375 -0.625 3.375 0 0 Z " fill="#156ACB" transform="translate(14,40)"/>
</svg>
